<mxfile host="app.diagrams.net" modified="2021-07-16T02:19:50.941Z" agent="5.0 (Windows NT 10.0; Win64; x64) AppleWebKit/537.36 (KHTML, like Gecko) Chrome/91.0.4472.124 Safari/537.36" etag="nvQnEnZfWXLb4FQFYHIM" version="14.8.6" type="github">
  <diagram name="Page-1" id="13e1069c-82ec-6db2-03f1-153e76fe0fe0">
    <mxGraphModel dx="1422" dy="762" grid="1" gridSize="10" guides="1" tooltips="1" connect="1" arrows="1" fold="1" page="1" pageScale="1" pageWidth="4681" pageHeight="3300" background="none" math="0" shadow="0">
      <root>
        <mxCell id="0" />
        <mxCell id="1" parent="0" />
        <mxCell id="vRu0DPhLWvkFZ38ZcL41-10" style="edgeStyle=orthogonalEdgeStyle;rounded=0;orthogonalLoop=1;jettySize=auto;html=1;exitX=0.5;exitY=1;exitDx=0;exitDy=0;entryX=0.5;entryY=0;entryDx=0;entryDy=0;" edge="1" parent="1" source="vRu0DPhLWvkFZ38ZcL41-2" target="vRu0DPhLWvkFZ38ZcL41-3">
          <mxGeometry relative="1" as="geometry" />
        </mxCell>
        <mxCell id="vRu0DPhLWvkFZ38ZcL41-2" value="RealConnection.connect" style="rounded=1;whiteSpace=wrap;html=1;" vertex="1" parent="1">
          <mxGeometry x="370" y="70" width="200" height="60" as="geometry" />
        </mxCell>
        <mxCell id="vRu0DPhLWvkFZ38ZcL41-11" style="edgeStyle=orthogonalEdgeStyle;rounded=0;orthogonalLoop=1;jettySize=auto;html=1;exitX=0;exitY=0.5;exitDx=0;exitDy=0;entryX=0.5;entryY=0;entryDx=0;entryDy=0;" edge="1" parent="1" source="vRu0DPhLWvkFZ38ZcL41-3" target="vRu0DPhLWvkFZ38ZcL41-4">
          <mxGeometry relative="1" as="geometry" />
        </mxCell>
        <mxCell id="vRu0DPhLWvkFZ38ZcL41-12" style="edgeStyle=orthogonalEdgeStyle;rounded=0;orthogonalLoop=1;jettySize=auto;html=1;exitX=1;exitY=0.5;exitDx=0;exitDy=0;entryX=0.5;entryY=0;entryDx=0;entryDy=0;" edge="1" parent="1" source="vRu0DPhLWvkFZ38ZcL41-3" target="vRu0DPhLWvkFZ38ZcL41-9">
          <mxGeometry relative="1" as="geometry" />
        </mxCell>
        <mxCell id="vRu0DPhLWvkFZ38ZcL41-3" value="是否HTTPS" style="rhombus;whiteSpace=wrap;html=1;" vertex="1" parent="1">
          <mxGeometry x="390" y="180" width="160" height="70" as="geometry" />
        </mxCell>
        <mxCell id="vRu0DPhLWvkFZ38ZcL41-13" style="edgeStyle=orthogonalEdgeStyle;rounded=0;orthogonalLoop=1;jettySize=auto;html=1;exitX=0.5;exitY=1;exitDx=0;exitDy=0;entryX=0.5;entryY=0;entryDx=0;entryDy=0;" edge="1" parent="1" source="vRu0DPhLWvkFZ38ZcL41-4" target="vRu0DPhLWvkFZ38ZcL41-5">
          <mxGeometry relative="1" as="geometry" />
        </mxCell>
        <mxCell id="vRu0DPhLWvkFZ38ZcL41-4" value="创建原始套接字并连接" style="rounded=1;whiteSpace=wrap;html=1;" vertex="1" parent="1">
          <mxGeometry x="220" y="260" width="120" height="60" as="geometry" />
        </mxCell>
        <mxCell id="vRu0DPhLWvkFZ38ZcL41-14" style="edgeStyle=orthogonalEdgeStyle;rounded=0;orthogonalLoop=1;jettySize=auto;html=1;exitX=0.5;exitY=1;exitDx=0;exitDy=0;entryX=0.5;entryY=0;entryDx=0;entryDy=0;" edge="1" parent="1" source="vRu0DPhLWvkFZ38ZcL41-5" target="vRu0DPhLWvkFZ38ZcL41-6">
          <mxGeometry relative="1" as="geometry" />
        </mxCell>
        <mxCell id="vRu0DPhLWvkFZ38ZcL41-5" value="连接隧道" style="rounded=1;whiteSpace=wrap;html=1;" vertex="1" parent="1">
          <mxGeometry x="220" y="360" width="120" height="60" as="geometry" />
        </mxCell>
        <mxCell id="vRu0DPhLWvkFZ38ZcL41-15" style="edgeStyle=orthogonalEdgeStyle;rounded=0;orthogonalLoop=1;jettySize=auto;html=1;exitX=0.5;exitY=1;exitDx=0;exitDy=0;entryX=0.5;entryY=0;entryDx=0;entryDy=0;" edge="1" parent="1" source="vRu0DPhLWvkFZ38ZcL41-6" target="vRu0DPhLWvkFZ38ZcL41-7">
          <mxGeometry relative="1" as="geometry" />
        </mxCell>
        <mxCell id="vRu0DPhLWvkFZ38ZcL41-6" value="TLS握手" style="rounded=1;whiteSpace=wrap;html=1;" vertex="1" parent="1">
          <mxGeometry x="220" y="460" width="120" height="60" as="geometry" />
        </mxCell>
        <mxCell id="vRu0DPhLWvkFZ38ZcL41-16" style="edgeStyle=orthogonalEdgeStyle;rounded=0;orthogonalLoop=1;jettySize=auto;html=1;exitX=0.5;exitY=1;exitDx=0;exitDy=0;entryX=0.5;entryY=0;entryDx=0;entryDy=0;" edge="1" parent="1" source="vRu0DPhLWvkFZ38ZcL41-7" target="vRu0DPhLWvkFZ38ZcL41-8">
          <mxGeometry relative="1" as="geometry" />
        </mxCell>
        <mxCell id="vRu0DPhLWvkFZ38ZcL41-19" style="edgeStyle=orthogonalEdgeStyle;rounded=0;orthogonalLoop=1;jettySize=auto;html=1;exitX=1;exitY=0.5;exitDx=0;exitDy=0;entryX=1;entryY=0.5;entryDx=0;entryDy=0;" edge="1" parent="1" source="vRu0DPhLWvkFZ38ZcL41-7" target="vRu0DPhLWvkFZ38ZcL41-17">
          <mxGeometry relative="1" as="geometry" />
        </mxCell>
        <mxCell id="vRu0DPhLWvkFZ38ZcL41-7" value="是否HTTP2" style="rhombus;whiteSpace=wrap;html=1;" vertex="1" parent="1">
          <mxGeometry x="395" y="560" width="175" height="70" as="geometry" />
        </mxCell>
        <mxCell id="vRu0DPhLWvkFZ38ZcL41-18" style="edgeStyle=orthogonalEdgeStyle;rounded=0;orthogonalLoop=1;jettySize=auto;html=1;exitX=0.5;exitY=1;exitDx=0;exitDy=0;entryX=0.5;entryY=0;entryDx=0;entryDy=0;" edge="1" parent="1" source="vRu0DPhLWvkFZ38ZcL41-8" target="vRu0DPhLWvkFZ38ZcL41-17">
          <mxGeometry relative="1" as="geometry" />
        </mxCell>
        <mxCell id="vRu0DPhLWvkFZ38ZcL41-8" value="启动HTTP2" style="rounded=1;whiteSpace=wrap;html=1;" vertex="1" parent="1">
          <mxGeometry x="422.5" y="660" width="120" height="60" as="geometry" />
        </mxCell>
        <mxCell id="vRu0DPhLWvkFZ38ZcL41-23" style="edgeStyle=orthogonalEdgeStyle;rounded=0;orthogonalLoop=1;jettySize=auto;html=1;exitX=0.5;exitY=1;exitDx=0;exitDy=0;entryX=0.5;entryY=0;entryDx=0;entryDy=0;" edge="1" parent="1" source="vRu0DPhLWvkFZ38ZcL41-9" target="vRu0DPhLWvkFZ38ZcL41-7">
          <mxGeometry relative="1" as="geometry">
            <Array as="points">
              <mxPoint x="660" y="540" />
              <mxPoint x="483" y="540" />
            </Array>
          </mxGeometry>
        </mxCell>
        <mxCell id="vRu0DPhLWvkFZ38ZcL41-9" value="创建原始套接字并连接" style="rounded=1;whiteSpace=wrap;html=1;" vertex="1" parent="1">
          <mxGeometry x="600" y="260" width="120" height="60" as="geometry" />
        </mxCell>
        <mxCell id="vRu0DPhLWvkFZ38ZcL41-17" value="结束" style="rounded=1;whiteSpace=wrap;html=1;" vertex="1" parent="1">
          <mxGeometry x="423" y="770" width="120" height="60" as="geometry" />
        </mxCell>
        <mxCell id="vRu0DPhLWvkFZ38ZcL41-24" value="是" style="text;html=1;strokeColor=none;fillColor=none;align=center;verticalAlign=middle;whiteSpace=wrap;rounded=0;" vertex="1" parent="1">
          <mxGeometry x="350" y="190" width="40" height="20" as="geometry" />
        </mxCell>
        <mxCell id="vRu0DPhLWvkFZ38ZcL41-25" value="否" style="text;html=1;strokeColor=none;fillColor=none;align=center;verticalAlign=middle;whiteSpace=wrap;rounded=0;" vertex="1" parent="1">
          <mxGeometry x="550" y="190" width="40" height="20" as="geometry" />
        </mxCell>
        <mxCell id="vRu0DPhLWvkFZ38ZcL41-26" value="是" style="text;html=1;strokeColor=none;fillColor=none;align=center;verticalAlign=middle;whiteSpace=wrap;rounded=0;" vertex="1" parent="1">
          <mxGeometry x="440" y="630" width="40" height="20" as="geometry" />
        </mxCell>
        <mxCell id="vRu0DPhLWvkFZ38ZcL41-27" value="否" style="text;html=1;strokeColor=none;fillColor=none;align=center;verticalAlign=middle;whiteSpace=wrap;rounded=0;" vertex="1" parent="1">
          <mxGeometry x="560" y="570" width="40" height="20" as="geometry" />
        </mxCell>
      </root>
    </mxGraphModel>
  </diagram>
</mxfile>
